<?xml version="1.0" encoding="UTF-8"?>
<svg width="189px" height="115px" viewBox="0 0 189 115" version="1.1" xmlns="http://www.w3.org/2000/svg" xmlns:xlink="http://www.w3.org/1999/xlink">
    <g id="Page-1" stroke="none" stroke-width="1" fill='none' fill-rule="evenodd">
        <g id="vectorstock_24915463" transform="translate(-58.000000, -586.000000)" fill="#00000022">
            <path d="M201.5,665.055 C201.929,665.996 202.509,666.983 203.277,668.3 C204.504,670.401 201.84,664.175 203.871,667.605 C204.208,668.175 208.415,673.44 206.923,670.648 C206.649,670.137 205.661,667.356 207.237,669.64 C207.25,669.659 212.775,673.573 210.519,670.852 C207.918,667.715 211.347,670.771 212.824,671.082 C215.602,671.666 214.578,672.42 212.774,669.741 C212.674,669.592 216.284,671.595 216.749,672.293 C216.52,669.313 213.898,669.596 218.074,670.918 C221.992,672.16 218.739,671.262 218.565,669.75 C218.785,669.682 222.843,672.449 222.042,670.962 C220.381,667.882 222.979,671.721 224.568,670.834 C225.741,670.18 220.45,668.305 225.882,670.369 C229.675,671.811 225.475,668.876 227.231,670.047 C228.034,670.582 232.233,670.043 231.576,669.827 C230.79,669.567 230.766,669.232 229.732,668.868 C231.7,667.978 233.842,669.855 233.725,669.579 C232.666,667.089 234.079,669.549 236.658,667.503 C236.658,666.174 237.394,667.106 238.074,666.247 C238.233,666.045 238.351,665.853 238.432,665.668 C238.981,665.607 239.531,665.418 239.563,665.426 C241.729,665.961 239.449,664.696 240.589,664.696 C243.304,664.696 239.372,663.802 241.403,663.882 C245.307,664.036 240.311,662.875 242.624,662.966 C246.71,663.127 242.376,662.152 244.048,662.152 C248.881,662.152 243.09,660.765 244.862,660.83 C248.479,660.962 245.177,660.391 243.743,658.896 C242.963,658.084 239.292,655.218 236.902,654.158 C235.72,653.396 234.797,652.828 234.577,652.725 C225.18,648.353 215.536,650.491 207.81,645.975 C202.255,642.729 197.773,637.595 195.075,631.731 C193.307,627.891 190.168,626.764 188.191,624.609 C185.994,622.215 175.212,618.683 171.842,617.726 C165.953,616.052 163.376,615.908 157.412,615.563 C150.377,615.155 147.902,614.771 141.931,617.216 C141.979,617.082 143.322,616.479 143.322,615.452 C143,615.452 139.339,617.487 134.674,617.487 C133.964,617.487 131.713,617.225 129.88,617.007 C129.653,616.913 129.44,616.812 129.255,616.699 C127.654,615.728 124.06,614.181 121.428,613.477 C121.779,613.443 121.909,613.362 121.558,613.179 C118.411,611.539 115.36,608.556 112.366,606.415 C108.918,603.948 108.329,605 110.264,603.624 C110.406,603.523 105.433,601.26 104.788,600.496 C103.255,598.683 100.909,598.342 100.776,598.054 C101.65,596.538 100.552,597.479 99.944,596.767 C98.87,595.507 95.996,595.339 96.029,595.214 C96.367,593.912 93.336,594.765 94.247,593.755 C95.7,592.143 91.212,593.803 93.035,592.525 C93.485,592.209 88.905,590.187 86.373,590.792 C86.264,590.29 86.178,589.657 85.965,588.923 C85.963,588.916 85.943,587.967 85.735,587.066 C80.586,585.284 81.779,587.141 77.29,586.964 C74.521,586.855 75.853,591.174 75.282,591.976 C74.302,593.352 77.643,593.321 77.494,591.441 C78.78,591.441 78.658,593.127 79.27,593.918 C79.11,594.28 79.02,594.675 79.02,595.104 C79.02,595.279 79.014,595.448 79.004,595.612 C77.769,596.504 76.31,597.815 76.003,598.284 C75.739,598.686 74.794,599.517 74.442,600.191 C72.943,603.051 72.241,603.146 71.186,606.193 C70.514,608.133 67.052,611.271 65.081,612.129 C64.208,612.51 56.893,617.24 58.096,618.266 C58.144,618.308 59.278,619.963 59.756,620.371 C62.666,622.854 61.801,620.388 63.317,623.295 C63.609,623.856 69.623,624.362 70.854,623.251 C71.308,622.843 76.623,621.353 79.216,622.296 C78.971,622.613 78.662,622.964 78.273,623.354 C77.297,624.33 72.244,626.289 72.009,628.568 C74.193,628.342 74.476,626.893 71.796,630.307 C70.403,632.083 74.977,627.913 72.305,631.275 C72.289,631.296 70.778,633.886 71.619,632.979 C72.296,632.248 73.97,631.573 71.822,634.004 C70.752,635.216 70.402,636.261 72.415,634.673 C73.848,633.543 70.333,637.763 70.907,639.15 C71.147,639.15 71.49,637.327 72.712,637.327 C72.712,637.431 70.034,643.612 71.872,640.99 C74.389,637.398 70.342,646.146 73.154,642.135 C74.496,640.22 71.886,646.992 72.831,645.688 C76.948,640.006 72.415,648.001 73.831,646.798 C78.21,643.079 73.394,648.261 74.535,648.333 C75.501,648.394 76.463,644.736 75.773,648.121 C75.171,651.077 77.422,644.864 76.79,648.731 C76.581,650.009 73.893,653.354 77.163,650.324 C78.272,649.296 77.528,649.765 76.985,651.876 C76.033,655.582 78.956,648.273 77.892,653.496 C77.366,656.078 79.697,650.449 78.91,654.31 C77.891,659.306 80.792,652.555 80.334,655.632 C80.225,656.371 80.01,660.361 81.285,657.295 C82.779,653.702 80.693,661.178 81.953,658.99 C83.73,655.904 80.618,664.765 83.837,659.693 C84.428,658.763 81.607,666.593 84.904,660.914 C85.35,660.146 82.451,667.447 85.599,662.246 C86.581,660.621 83.786,668.813 87.235,663.254 C88.305,661.53 85.016,670.3 88.924,664.722 C89.75,663.543 87.574,669.332 89.084,666.859 C91.877,662.286 89.151,671.2 91.154,667.333 C92.279,665.16 91.986,666.986 92.035,667.646 C92.058,667.958 92.281,667.86 92.601,667.5 C92.565,668.616 92.611,669.471 93.096,668.902 C93.674,668.224 94.01,667.931 94.201,667.872 C94.259,668.196 94.322,668.532 94.388,668.873 C94.359,669.243 94.356,669.587 94.543,669.655 C94.975,671.785 95.49,673.912 95.798,674.345 C96.76,675.695 96.769,682.168 96.103,683.781 C94.58,687.474 96.479,687.364 91.339,688.97 C90.436,689.252 89.679,690.871 89.536,691.297 C89.135,692.49 91.157,693.907 92.458,693.642 C94.27,693.273 92.288,694.625 95.612,693.947 C102.868,692.469 99.811,692.665 102.362,685.715 C102.874,684.322 103.421,683.261 103.94,682.349 C104.163,685.024 104.342,688.05 103.058,689.853 C101.998,691.341 103.678,691.654 99.639,695.693 C97.726,697.606 97.667,697.799 100.258,700.138 C100.898,700.715 102.018,699.207 103.668,700.382 C104.585,701.035 109.765,697.698 110.061,694.304 C110.196,692.742 112.125,693.178 111.197,691.734 C110.346,690.408 112.574,691.762 111.95,690.649 C111.11,689.15 114.289,691.619 113.325,689.521 C111.986,686.607 114.625,689.146 114.148,687.894 C113.912,687.275 124.167,690.566 119.811,687.929 C118.64,687.22 122.956,688.091 120.735,686.85 C118.674,685.699 123.497,686.836 121.473,685.315 C119.659,683.952 122.649,685.062 121.677,683.696 C121.154,682.962 123.176,683.704 122.973,683.213 C122.735,683.152 121.487,681.195 123.075,681.391 C124.391,681.553 121.797,680.049 123.38,678.71 C123.603,678.522 123.641,678.043 123.538,677.421 C125.535,676.071 124.866,680.345 126.247,678.033 C128.558,674.164 126.588,679.631 127.84,678.254 C128.963,677.018 129.265,672.636 130.272,676.583 C131.568,681.655 132.323,672.33 133.174,676.091 C133.833,679.006 133.954,670.561 135.555,675.548 C136.69,679.084 136.675,669.059 137.863,674.167 C138.588,677.287 138.892,672.993 138.819,672.632 C138.242,669.792 140.34,673.305 140.345,673.318 C141.328,675.702 142.006,673.605 142,673.446 C141.79,668.541 143.447,675.954 143.025,672.53 C142.582,668.92 144.523,670.425 145.025,671.487 C146.737,675.104 146.656,664.255 147.494,668.69 C148.463,673.828 149.169,667.947 149.122,666.833 C149.015,664.351 150.728,671.997 150.546,667.749 C150.353,663.247 151.363,668.96 151.537,668.96 C151.774,668.119 152.01,667.909 151.877,666.833 C151.531,664.02 152.567,667.979 152.589,668.155 C152.784,669.739 153.301,667.35 153.302,667.341 C153.825,663.085 153.562,668.018 154.386,667.841 C154.491,667.587 154.839,666.112 155.157,664.639 C155.42,664.971 155.799,665.333 156.168,665.824 C156.89,666.785 156.124,663.287 157.083,666.222 C157.893,668.697 157.57,664.667 158.813,667.51 C158.921,667.757 165.349,673.205 166.383,674.295 C167.542,675.516 167.785,673.773 169.749,678.533 C170.533,680.433 169.488,686.865 166.926,687.071 C165.723,687.168 163.985,690.946 167.333,690.946 C168.666,690.946 168.966,692.002 170.412,690.972 C171.271,690.36 171.845,692.624 174.726,689.588 C177.423,686.746 174.845,683.229 178.185,679.524 C178.196,679.512 178.208,679.498 178.219,679.484 C179.239,680.801 180.278,682.247 180.348,683.112 C180.65,686.866 180.188,693.02 176.185,694.405 C176.17,694.41 173.599,696.859 175.99,697.347 C176.006,697.35 177.011,699.403 179.365,697.891 C179.658,697.703 181.108,699.892 183.578,697.422 C185.462,695.539 185.815,695.942 186.045,693.083 C186.13,692.028 187.736,690.511 187.581,686.571 C187.482,684.065 190.667,685.933 189.377,683.519 C188.648,682.155 191.978,684.653 190.226,681.51 C188.936,679.195 191.88,680.941 191.752,680.237 C191.143,676.896 194.371,682.228 193.304,678.56 C192.303,675.118 196.673,679.66 195.339,676.455 C194.676,674.861 195.472,674.123 197.017,675.516 C197.767,676.192 195.324,669.97 197.618,673.76 C199.297,676.534 196.816,670.869 198.493,672.734 C199.893,674.29 199.295,674.162 199.188,671.141 C199.083,668.201 199.384,671.042 200.409,671.469 C199.103,662.765 203.173,673.831 201.595,666.019 C201.5,665.553 201.476,665.245 201.5,665.055" id="Fill-162"></path>
        </g>
    </g>
</svg>